<svg width="367" height="132" viewBox="0 0 367 132" fill="none" xmlns="http://www.w3.org/2000/svg">
<path d="M0 3.77307H21.2219C19.7208 5.03961 19.4922 6.84104 19.5656 7.58343L30.4596 73.5081H34.5311L44.2146 7.58343C44.2146 5.44533 42.6743 4.2455 41.9038 3.77307H64.242C62.9861 4.85519 47.1966 37.3457 45.6558 61.6944C45.5035 64.1023 46.2221 66.4604 47.5158 68.4969L43.1142 74.2876C37.4801 80.1674 35.7048 93.8126 35.5214 99.9002C32.8687 117.113 26.159 126.791 22.0883 130.501C21.2079 131.303 20.0299 131.638 18.8388 131.638H11.0924V108.029C12.8442 111.073 13.9011 112.854 14.5483 113.896C15.2125 114.965 16.3887 115.379 17.6472 115.379C19.5518 115.379 21.3746 114.513 22.4376 112.933C27.0878 106.02 28.1373 100.079 28.0387 97.7844V91.4369C27.4224 81.281 20.2258 72.6543 16.7045 69.6105C18.4174 67.3715 19.3455 64.6309 19.3455 61.8119V57.0352C19.3455 55.3299 19.1159 53.6324 18.6629 51.9884L7.90126 12.9287C5.17226 7.76161 1.49667 4.67199 0 3.77307Z" fill="white"/>
<path d="M62.4338 96.4552V115.379H81.6286C90.8782 112.406 98.2377 104.197 100.011 84.2248C100.601 72.0686 102.719 69.048 104.683 67.8832C103.365 66.5754 102.082 63.2681 101.151 60.2673C100.297 57.5161 100.011 54.6317 100.011 51.751V42.5452C100.011 40.4858 99.8754 38.4179 99.4197 36.4096C95.8478 20.6695 86.5958 17.2931 82.1757 17.6516H62.8906L61.2254 38.9618C63.8213 29.7475 69.0284 24.2893 71.9966 22.1886C72.5608 21.7892 73.2457 21.6201 73.937 21.6201H77.6793C78.1659 21.6201 78.6556 21.7045 79.0999 21.9031C92.0556 27.6953 90.3945 52.375 91.4154 64.1317C80.9834 64.5599 73.9707 61.7843 71.7683 60.343V71.8738C76.3893 68.0942 86.7918 67.7899 91.4154 68.1102C91.4154 90.3085 88.7657 102.199 80.1217 109.668C79.4467 110.252 78.5727 110.543 77.6808 110.543H73.1986C72.9881 110.543 72.7775 110.57 72.5671 110.562C70.5615 110.491 68.5299 106.616 62.4338 96.4552Z" fill="white"/>
<path d="M109.846 19.4626H130.712C125.837 22.5052 125.794 24.8304 125.837 26.4355V64.1317H148.263V26.4355C148.263 22.5832 146.154 21.2456 144.038 19.4626H163.669C159.665 22.0413 157.97 25.1857 157.624 26.4355V62.221C158.456 64.9575 160.484 66.6503 161.394 67.1547C158.378 68.3124 157.624 71.8033 157.624 73.404V106.755C158.037 110.364 158.831 110.868 164.982 114.772L165.099 114.847H142.803C147.171 112.163 148.523 108.334 148.653 106.755L148.263 67.8832H125.837V106.427C125.837 110.637 129.733 113.684 131.687 114.847H109.391C114.8 111.403 116.498 107.799 116.672 106.427V73.404C115.632 69.457 113.292 67.5932 112.251 67.1547C115.788 65.6811 116.672 63.2516 116.672 62.221V26.4355C115.476 23.4359 111.623 20.5371 109.846 19.4626Z" fill="white"/>
<path d="M170.773 37.6541L172.638 18.9239C184.853 14.8301 203.076 12.9124 205.973 37.6541C205.973 39.4029 207.315 40.9 207.986 41.4299C206.376 41.6684 205.973 42.9535 205.973 43.5663C201.81 56.7221 193.307 62.7582 189.576 64.1317C205.089 71.5495 206.169 82.9145 206.66 90.4662C207.446 92.0958 209.099 92.3759 209.772 92.6563C209.64 92.7497 206.979 95.4442 206.66 96.4281C202.615 108.908 195.091 113.907 191.834 114.847H170.773V96.1797C172.607 104.124 176.367 108.232 178.917 109.886C179.841 110.485 180.957 110.637 182.059 110.637H186.683C188.418 110.637 190.18 110.249 191.484 109.106C195.883 105.25 196.733 99.2616 196.547 96.4281V82.4303C196.547 81.7612 196.493 81.0898 196.303 80.4483C193.985 72.6268 183.489 66.7509 178.333 64.7309V62.7933C185.751 62.1376 190.963 56.9983 193.544 53.2011C194.482 51.8203 194.829 50.1509 194.829 48.4813V32.1556C194.829 30.8308 194.607 29.5068 194.074 28.294C186.36 10.7431 176.381 30.3914 170.773 37.6541Z" fill="white"/>
<path fill-rule="evenodd" clip-rule="evenodd" d="M215.827 19.7912C220.199 22.8731 221.228 27.0678 221.195 28.7799V62.1659C220.414 65.4848 216.867 66.763 215.827 67.0059C219.418 68.1912 220.902 71.5166 221.195 73.0312V89.1316C220.258 100.748 217.226 108.92 215.827 111.554H208.799V132C213.837 124.125 217.453 115.669 219.73 115.307H252.721C259.672 116.591 260.572 129.396 262.188 132V111.554H254.868V73.0312C255.961 69.0012 258.382 67.3352 259.456 67.0059C255.786 64.9514 254.868 61.7379 254.868 60.388V28.7799C254.868 24.0387 257.724 21.932 261.31 19.7912H252.721C249.675 19.2382 247.222 15.8733 246.376 14.2599C243.956 18.6849 241.399 19.7912 240.422 19.7912H215.827ZM247.548 22.8538H228.612V83.0079C228.612 89.2636 227.519 103.731 223.146 111.554H247.548V22.8538Z" fill="white"/>
<path d="M268.014 19.7912C272.256 23.4579 273.402 29.8125 273.445 32.5315V60.388C272.273 64.868 269.279 66.6666 267.928 67.0059C271.583 68.9832 273.129 71.8466 273.445 73.0312V107.601C272.356 111.404 269.313 114.323 267.928 115.307H276.81C280.135 116.31 282.27 118.21 282.921 119.034C285.203 116.052 287.458 115.307 288.3 115.307H305.331V99.9019C301.42 106.829 289.414 110.556 283.899 111.554V67.9873H287.077C292.619 68.3831 296.34 70.5712 297.508 71.6158V60.388C294.249 63.5646 289.196 64.3587 287.077 64.3587H283.899V23.6323H285.855H287.811C294.33 26.5351 298.079 29.5303 299.138 31.9493L301.338 19.002H287.077C284.861 19.002 283.655 16.418 283.329 15.1261C281.634 18.2268 278.711 19.5281 277.462 19.7912H268.014Z" fill="white"/>
<path d="M310.734 19.002C314.163 21.347 316.122 27.0552 316.673 29.6162V62.0828C315.791 65.6021 313.612 66.8312 312.632 67.0059C315.081 68.619 316.346 73.1116 316.673 75.1562V122.617L352.061 53.1607V113.261C350.788 115.888 347.857 118.204 346.551 119.034H367C362.837 116.398 361.306 114.087 361.061 113.261V78.9977C361.698 74.5366 363.939 72.2176 364.98 71.6158C362.188 70.1358 361.204 64.9743 361.061 62.5785V10.9665L325.979 87.0526V25.4652C325.979 22.2929 328.469 19.8346 329.714 19.002H310.734Z" fill="white"/>
<path d="M324.142 0H333.265V7.31092C333.265 13.7374 342.939 13.0286 342.755 7.55876V0H352.061V2.53378C352.061 4.17283 351.744 5.81593 351.003 7.27767C343.396 22.2733 331.324 21.1553 324.983 7.05458C324.388 5.73067 324.142 4.27456 324.142 2.82294V0Z" fill="white"/>
</svg>
